<svg width="1082" height="300" viewBox="0 0 1082 300" fill="none" xmlns="http://www.w3.org/2000/svg">
<path d="M263.495 153.75C264.835 151.429 264.835 148.571 263.495 146.25L213.495 59.6475C212.155 57.327 209.679 55.8975 207 55.8975L107 55.8975C104.321 55.8975 101.845 57.327 100.505 59.6475L50.5048 146.25C49.1651 148.571 49.1651 151.429 50.5048 153.75L100.505 240.353C101.845 242.673 104.321 244.103 107 244.103L207 244.103C209.679 244.103 212.155 242.673 213.495 240.353L263.495 153.75Z" fill="#194B7D" stroke="#194B7D" stroke-width="15" stroke-linejoin="round"/>
<path fill-rule="evenodd" clip-rule="evenodd" d="M225.568 113.107C227.571 112.628 229.262 114.643 228.442 116.533L214.69 148.26C213.951 149.965 211.675 150.296 210.481 148.872L205.372 142.784L173.508 170.646C170.401 173.363 165.682 173.058 162.949 169.964L141.832 146.047L117.544 167.191C117.842 168.412 118 169.687 118 171C118 179.837 110.837 187 102 187C93.1634 187 86 179.837 86 171C86 162.163 93.1634 155 102 155C103.956 155 105.829 155.351 107.562 155.993L137.6 129.843C140.709 127.137 145.419 127.446 148.147 130.536L169.253 154.441L195.728 131.291L190.6 125.18C189.406 123.756 190.127 121.573 191.934 121.141L225.568 113.107Z" fill="white"/>
<path d="M369.4 206.1C360.9 206.1 352.65 205.05 344.65 202.95C336.65 200.85 330.15 198.05 325.15 194.55L334.9 172.65C339.6 175.75 345.05 178.25 351.25 180.15C357.45 182.05 363.55 183 369.55 183C380.95 183 386.65 180.15 386.65 174.45C386.65 171.45 385 169.25 381.7 167.85C378.5 166.35 373.3 164.8 366.1 163.2C358.2 161.5 351.6 159.7 346.3 157.8C341 155.8 336.45 152.65 332.65 148.35C328.85 144.05 326.95 138.25 326.95 130.95C326.95 124.55 328.7 118.8 332.2 113.7C335.7 108.5 340.9 104.4 347.8 101.4C354.8 98.4 363.35 96.9 373.45 96.9C380.35 96.9 387.15 97.7 393.85 99.3C400.55 100.8 406.45 103.05 411.55 106.05L402.4 128.1C392.4 122.7 382.7 120 373.3 120C367.4 120 363.1 120.9 360.4 122.7C357.7 124.4 356.35 126.65 356.35 129.45C356.35 132.25 357.95 134.35 361.15 135.75C364.35 137.15 369.5 138.6 376.6 140.1C384.6 141.8 391.2 143.65 396.4 145.65C401.7 147.55 406.25 150.65 410.05 154.95C413.95 159.15 415.9 164.9 415.9 172.2C415.9 178.5 414.15 184.2 410.65 189.3C407.15 194.4 401.9 198.5 394.9 201.6C387.9 204.6 379.4 206.1 369.4 206.1ZM456.904 122.55H424.654V99H518.704V122.55H486.604V204H456.904V122.55ZM601.246 183.6H556.846L548.596 204H518.296L564.646 99H593.896L640.396 204H609.496L601.246 183.6ZM592.546 161.7L579.046 128.1L565.546 161.7H592.546ZM672.292 122.55H640.042V99H734.092V122.55H701.992V204H672.292V122.55ZM788.164 206.1C779.664 206.1 771.414 205.05 763.414 202.95C755.414 200.85 748.914 198.05 743.914 194.55L753.664 172.65C758.364 175.75 763.814 178.25 770.014 180.15C776.214 182.05 782.314 183 788.314 183C799.714 183 805.414 180.15 805.414 174.45C805.414 171.45 803.764 169.25 800.464 167.85C797.264 166.35 792.064 164.8 784.864 163.2C776.964 161.5 770.364 159.7 765.064 157.8C759.764 155.8 755.214 152.65 751.414 148.35C747.614 144.05 745.714 138.25 745.714 130.95C745.714 124.55 747.464 118.8 750.964 113.7C754.464 108.5 759.664 104.4 766.564 101.4C773.564 98.4 782.114 96.9 792.214 96.9C799.114 96.9 805.914 97.7 812.614 99.3C819.314 100.8 825.214 103.05 830.314 106.05L821.164 128.1C811.164 122.7 801.464 120 792.064 120C786.164 120 781.864 120.9 779.164 122.7C776.464 124.4 775.114 126.65 775.114 129.45C775.114 132.25 776.714 134.35 779.914 135.75C783.114 137.15 788.264 138.6 795.364 140.1C803.364 141.8 809.964 143.65 815.164 145.65C820.464 147.55 825.014 150.65 828.814 154.95C832.714 159.15 834.664 164.9 834.664 172.2C834.664 178.5 832.914 184.2 829.414 189.3C825.914 194.4 820.664 198.5 813.664 201.6C806.664 204.6 798.164 206.1 788.164 206.1ZM854.783 99H884.483V204H854.783V99ZM982.363 149.25H1008.61V192.75C1002.61 197.05 995.713 200.35 987.913 202.65C980.113 204.95 972.313 206.1 964.513 206.1C953.513 206.1 943.613 203.8 934.813 199.2C926.013 194.5 919.113 188 914.113 179.7C909.113 171.4 906.613 162 906.613 151.5C906.613 141 909.113 131.6 914.113 123.3C919.113 115 926.063 108.55 934.963 103.95C943.863 99.25 953.913 96.9 965.113 96.9C974.913 96.9 983.713 98.55 991.513 101.85C999.313 105.15 1005.81 109.9 1011.01 116.1L992.113 133.2C985.013 125.4 976.513 121.5 966.613 121.5C957.613 121.5 950.363 124.25 944.863 129.75C939.363 135.15 936.613 142.4 936.613 151.5C936.613 157.3 937.863 162.5 940.363 167.1C942.863 171.6 946.363 175.15 950.863 177.75C955.363 180.25 960.513 181.5 966.313 181.5C972.013 181.5 977.363 180.35 982.363 178.05V149.25Z" fill="#194B7D"/>
</svg>
